%TF.GenerationSoftware,KiCad,Pcbnew,9.0.4*%
%TF.CreationDate,2025-09-15T17:28:39-07:00*%
%TF.ProjectId,dvl_kill,64766c5f-6b69-46c6-9c2e-6b696361645f,rev?*%
%TF.SameCoordinates,Original*%
%TF.FileFunction,Copper,L2,Bot*%
%TF.FilePolarity,Positive*%
%FSLAX46Y46*%
G04 Gerber Fmt 4.6, Leading zero omitted, Abs format (unit mm)*
G04 Created by KiCad (PCBNEW 9.0.4) date 2025-09-15 17:28:39*
%MOMM*%
%LPD*%
G01*
G04 APERTURE LIST*
%TA.AperFunction,ComponentPad*%
%ADD10R,1.530000X1.530000*%
%TD*%
%TA.AperFunction,ComponentPad*%
%ADD11C,1.530000*%
%TD*%
%TA.AperFunction,ViaPad*%
%ADD12C,0.700000*%
%TD*%
G04 APERTURE END LIST*
D10*
%TO.P,J2,1,Pin_1*%
%TO.N,SIG*%
X146057500Y-90960000D03*
D11*
%TO.P,J2,2,Pin_2*%
%TO.N,VBATSW*%
X146057500Y-93500000D03*
%TO.P,J2,3,Pin_3*%
%TO.N,GND*%
X146057500Y-96040000D03*
%TD*%
D12*
%TO.N,GND*%
X137000000Y-94000000D03*
%TD*%
%TA.AperFunction,Conductor*%
%TO.N,GND*%
G36*
X154004042Y-83000765D02*
G01*
X154018399Y-83001705D01*
X154231615Y-83015680D01*
X154241094Y-83016671D01*
X154292679Y-83024088D01*
X154299143Y-83025195D01*
X154495789Y-83064310D01*
X154506496Y-83066941D01*
X154548767Y-83079353D01*
X154553614Y-83080887D01*
X154751989Y-83148226D01*
X154763618Y-83152842D01*
X154786842Y-83163448D01*
X154790139Y-83165013D01*
X154984204Y-83260715D01*
X154992460Y-83264787D01*
X155006508Y-83272897D01*
X155210464Y-83409177D01*
X155223328Y-83419048D01*
X155407749Y-83580781D01*
X155419218Y-83592250D01*
X155580951Y-83776671D01*
X155590825Y-83789539D01*
X155727102Y-83993492D01*
X155735212Y-84007539D01*
X155834968Y-84209824D01*
X155836550Y-84213156D01*
X155847154Y-84236375D01*
X155851779Y-84248028D01*
X155919097Y-84446340D01*
X155920655Y-84451264D01*
X155933053Y-84493488D01*
X155935693Y-84504232D01*
X155974796Y-84700818D01*
X155975917Y-84707362D01*
X155983325Y-84758885D01*
X155984321Y-84768422D01*
X155999234Y-84995941D01*
X155999500Y-85004051D01*
X155999500Y-101995948D01*
X155999234Y-102004058D01*
X155984321Y-102231576D01*
X155983325Y-102241113D01*
X155975917Y-102292636D01*
X155974796Y-102299180D01*
X155935693Y-102495766D01*
X155933053Y-102506510D01*
X155920655Y-102548734D01*
X155919097Y-102553658D01*
X155851779Y-102751970D01*
X155847154Y-102763623D01*
X155847153Y-102763626D01*
X155836542Y-102786859D01*
X155834961Y-102790187D01*
X155735214Y-102992456D01*
X155727104Y-103006504D01*
X155590825Y-103210460D01*
X155580951Y-103223328D01*
X155419218Y-103407749D01*
X155407749Y-103419218D01*
X155223328Y-103580951D01*
X155210460Y-103590825D01*
X155006504Y-103727104D01*
X154992456Y-103735214D01*
X154790187Y-103834961D01*
X154786859Y-103836542D01*
X154763626Y-103847153D01*
X154751970Y-103851779D01*
X154553658Y-103919097D01*
X154548734Y-103920655D01*
X154506510Y-103933053D01*
X154495766Y-103935693D01*
X154299180Y-103974796D01*
X154292636Y-103975917D01*
X154241113Y-103983325D01*
X154231576Y-103984321D01*
X154004058Y-103999234D01*
X153995948Y-103999500D01*
X135504052Y-103999500D01*
X135495942Y-103999234D01*
X135268422Y-103984321D01*
X135258885Y-103983325D01*
X135207362Y-103975917D01*
X135200818Y-103974796D01*
X135004232Y-103935693D01*
X134993488Y-103933053D01*
X134951264Y-103920655D01*
X134946340Y-103919097D01*
X134748028Y-103851779D01*
X134736375Y-103847154D01*
X134713156Y-103836550D01*
X134709824Y-103834968D01*
X134507539Y-103735212D01*
X134493492Y-103727102D01*
X134289539Y-103590825D01*
X134276671Y-103580951D01*
X134092250Y-103419218D01*
X134080781Y-103407749D01*
X133919048Y-103223328D01*
X133909174Y-103210460D01*
X133772897Y-103006507D01*
X133764787Y-102992460D01*
X133712630Y-102886697D01*
X133665013Y-102790139D01*
X133663448Y-102786842D01*
X133652841Y-102763615D01*
X133648226Y-102751989D01*
X133580887Y-102553614D01*
X133579353Y-102548767D01*
X133566941Y-102506496D01*
X133564310Y-102495789D01*
X133525195Y-102299143D01*
X133524088Y-102292679D01*
X133516671Y-102241094D01*
X133515680Y-102231615D01*
X133500765Y-102004042D01*
X133500500Y-101995933D01*
X133500500Y-100893713D01*
X135149500Y-100893713D01*
X135149500Y-101106287D01*
X135182754Y-101316243D01*
X135242393Y-101499793D01*
X135248444Y-101518414D01*
X135344951Y-101707820D01*
X135469890Y-101879786D01*
X135620213Y-102030109D01*
X135792179Y-102155048D01*
X135792181Y-102155049D01*
X135792184Y-102155051D01*
X135981588Y-102251557D01*
X136183757Y-102317246D01*
X136393713Y-102350500D01*
X136393714Y-102350500D01*
X136606286Y-102350500D01*
X136606287Y-102350500D01*
X136816243Y-102317246D01*
X137018412Y-102251557D01*
X137207816Y-102155051D01*
X137240754Y-102131120D01*
X137379786Y-102030109D01*
X137379788Y-102030106D01*
X137379792Y-102030104D01*
X137530104Y-101879792D01*
X137530106Y-101879788D01*
X137530109Y-101879786D01*
X137655048Y-101707820D01*
X137655047Y-101707820D01*
X137655051Y-101707816D01*
X137751557Y-101518412D01*
X137817246Y-101316243D01*
X137850500Y-101106287D01*
X137850500Y-100893713D01*
X151649500Y-100893713D01*
X151649500Y-101106287D01*
X151682754Y-101316243D01*
X151742393Y-101499793D01*
X151748444Y-101518414D01*
X151844951Y-101707820D01*
X151969890Y-101879786D01*
X152120213Y-102030109D01*
X152292179Y-102155048D01*
X152292181Y-102155049D01*
X152292184Y-102155051D01*
X152481588Y-102251557D01*
X152683757Y-102317246D01*
X152893713Y-102350500D01*
X152893714Y-102350500D01*
X153106286Y-102350500D01*
X153106287Y-102350500D01*
X153316243Y-102317246D01*
X153518412Y-102251557D01*
X153707816Y-102155051D01*
X153740754Y-102131120D01*
X153879786Y-102030109D01*
X153879788Y-102030106D01*
X153879792Y-102030104D01*
X154030104Y-101879792D01*
X154030106Y-101879788D01*
X154030109Y-101879786D01*
X154155048Y-101707820D01*
X154155047Y-101707820D01*
X154155051Y-101707816D01*
X154251557Y-101518412D01*
X154317246Y-101316243D01*
X154350500Y-101106287D01*
X154350500Y-100893713D01*
X154317246Y-100683757D01*
X154251557Y-100481588D01*
X154155051Y-100292184D01*
X154155049Y-100292181D01*
X154155048Y-100292179D01*
X154030109Y-100120213D01*
X153879786Y-99969890D01*
X153707820Y-99844951D01*
X153518414Y-99748444D01*
X153518413Y-99748443D01*
X153518412Y-99748443D01*
X153316243Y-99682754D01*
X153316241Y-99682753D01*
X153316240Y-99682753D01*
X153154957Y-99657208D01*
X153106287Y-99649500D01*
X152893713Y-99649500D01*
X152845042Y-99657208D01*
X152683760Y-99682753D01*
X152481585Y-99748444D01*
X152292179Y-99844951D01*
X152120213Y-99969890D01*
X151969890Y-100120213D01*
X151844951Y-100292179D01*
X151748444Y-100481585D01*
X151682753Y-100683760D01*
X151649500Y-100893713D01*
X137850500Y-100893713D01*
X137817246Y-100683757D01*
X137751557Y-100481588D01*
X137655051Y-100292184D01*
X137655049Y-100292181D01*
X137655048Y-100292179D01*
X137530109Y-100120213D01*
X137379786Y-99969890D01*
X137207820Y-99844951D01*
X137018414Y-99748444D01*
X137018413Y-99748443D01*
X137018412Y-99748443D01*
X136816243Y-99682754D01*
X136816241Y-99682753D01*
X136816240Y-99682753D01*
X136654957Y-99657208D01*
X136606287Y-99649500D01*
X136393713Y-99649500D01*
X136345042Y-99657208D01*
X136183760Y-99682753D01*
X135981585Y-99748444D01*
X135792179Y-99844951D01*
X135620213Y-99969890D01*
X135469890Y-100120213D01*
X135344951Y-100292179D01*
X135248444Y-100481585D01*
X135182753Y-100683760D01*
X135149500Y-100893713D01*
X133500500Y-100893713D01*
X133500500Y-90147135D01*
X144792000Y-90147135D01*
X144792000Y-91772870D01*
X144792001Y-91772876D01*
X144798408Y-91832483D01*
X144848702Y-91967328D01*
X144848706Y-91967335D01*
X144934952Y-92082544D01*
X144934955Y-92082547D01*
X145050164Y-92168793D01*
X145050171Y-92168797D01*
X145185017Y-92219091D01*
X145185016Y-92219091D01*
X145191944Y-92219835D01*
X145244627Y-92225500D01*
X145277068Y-92225499D01*
X145344105Y-92245182D01*
X145389861Y-92297984D01*
X145399806Y-92367143D01*
X145370783Y-92430699D01*
X145349955Y-92449816D01*
X145233082Y-92534730D01*
X145092233Y-92675579D01*
X145092233Y-92675580D01*
X145092231Y-92675582D01*
X145041947Y-92744790D01*
X144975147Y-92836733D01*
X144884713Y-93014219D01*
X144823161Y-93203656D01*
X144823161Y-93203659D01*
X144792000Y-93400403D01*
X144792000Y-93599596D01*
X144823161Y-93796340D01*
X144823161Y-93796343D01*
X144884713Y-93985780D01*
X144884715Y-93985783D01*
X144975147Y-94163266D01*
X145092231Y-94324418D01*
X145233082Y-94465269D01*
X145394234Y-94582353D01*
X145484409Y-94628299D01*
X145546222Y-94659795D01*
X145597018Y-94707770D01*
X145613813Y-94775591D01*
X145591276Y-94841726D01*
X145546223Y-94880764D01*
X145394493Y-94958075D01*
X145356635Y-94985580D01*
X145356635Y-94985581D01*
X145919925Y-95548871D01*
X145860647Y-95564755D01*
X145744353Y-95631898D01*
X145649398Y-95726853D01*
X145582255Y-95843147D01*
X145566371Y-95902425D01*
X145003081Y-95339135D01*
X145003080Y-95339135D01*
X144975577Y-95376990D01*
X144885179Y-95554405D01*
X144823647Y-95743777D01*
X144792500Y-95940436D01*
X144792500Y-96139563D01*
X144823647Y-96336222D01*
X144885179Y-96525594D01*
X144975577Y-96703008D01*
X145003080Y-96740863D01*
X145003081Y-96740864D01*
X145566371Y-96177574D01*
X145582255Y-96236853D01*
X145649398Y-96353147D01*
X145744353Y-96448102D01*
X145860647Y-96515245D01*
X145919925Y-96531128D01*
X145356634Y-97094417D01*
X145394494Y-97121924D01*
X145571905Y-97212320D01*
X145761277Y-97273852D01*
X145957937Y-97305000D01*
X146157063Y-97305000D01*
X146353722Y-97273852D01*
X146543094Y-97212320D01*
X146720505Y-97121924D01*
X146758363Y-97094418D01*
X146758363Y-97094417D01*
X146195074Y-96531128D01*
X146254353Y-96515245D01*
X146370647Y-96448102D01*
X146465602Y-96353147D01*
X146532745Y-96236853D01*
X146548628Y-96177574D01*
X147111917Y-96740863D01*
X147111918Y-96740863D01*
X147139424Y-96703005D01*
X147229820Y-96525594D01*
X147291352Y-96336222D01*
X147322500Y-96139563D01*
X147322500Y-95940436D01*
X147291352Y-95743777D01*
X147229820Y-95554405D01*
X147139424Y-95376994D01*
X147111917Y-95339135D01*
X147111917Y-95339134D01*
X146548628Y-95902424D01*
X146532745Y-95843147D01*
X146465602Y-95726853D01*
X146370647Y-95631898D01*
X146254353Y-95564755D01*
X146195074Y-95548871D01*
X146758364Y-94985581D01*
X146758363Y-94985580D01*
X146720508Y-94958077D01*
X146568777Y-94880765D01*
X146517981Y-94832790D01*
X146501186Y-94764969D01*
X146523724Y-94698834D01*
X146568777Y-94659795D01*
X146720766Y-94582353D01*
X146881918Y-94465269D01*
X147022769Y-94324418D01*
X147139853Y-94163266D01*
X147230285Y-93985783D01*
X147291839Y-93796339D01*
X147323000Y-93599597D01*
X147323000Y-93400403D01*
X147291839Y-93203661D01*
X147291838Y-93203657D01*
X147291838Y-93203656D01*
X147230286Y-93014219D01*
X147139852Y-92836733D01*
X147022769Y-92675582D01*
X146881918Y-92534731D01*
X146765043Y-92449816D01*
X146722378Y-92394487D01*
X146716399Y-92324874D01*
X146749005Y-92263079D01*
X146809843Y-92228722D01*
X146837928Y-92225499D01*
X146870372Y-92225499D01*
X146929983Y-92219091D01*
X147064831Y-92168796D01*
X147180046Y-92082546D01*
X147266296Y-91967331D01*
X147316591Y-91832483D01*
X147323000Y-91772873D01*
X147322999Y-90147128D01*
X147316591Y-90087517D01*
X147266296Y-89952669D01*
X147266295Y-89952668D01*
X147266293Y-89952664D01*
X147180047Y-89837455D01*
X147180044Y-89837452D01*
X147064835Y-89751206D01*
X147064828Y-89751202D01*
X146929982Y-89700908D01*
X146929983Y-89700908D01*
X146870383Y-89694501D01*
X146870381Y-89694500D01*
X146870373Y-89694500D01*
X146870364Y-89694500D01*
X145244629Y-89694500D01*
X145244623Y-89694501D01*
X145185016Y-89700908D01*
X145050171Y-89751202D01*
X145050164Y-89751206D01*
X144934955Y-89837452D01*
X144934952Y-89837455D01*
X144848706Y-89952664D01*
X144848702Y-89952671D01*
X144798408Y-90087517D01*
X144792001Y-90147116D01*
X144792001Y-90147123D01*
X144792000Y-90147135D01*
X133500500Y-90147135D01*
X133500500Y-85893713D01*
X135149500Y-85893713D01*
X135149500Y-86106286D01*
X135182753Y-86316239D01*
X135248444Y-86518414D01*
X135344951Y-86707820D01*
X135469890Y-86879786D01*
X135620213Y-87030109D01*
X135792179Y-87155048D01*
X135792181Y-87155049D01*
X135792184Y-87155051D01*
X135981588Y-87251557D01*
X136183757Y-87317246D01*
X136393713Y-87350500D01*
X136393714Y-87350500D01*
X136606286Y-87350500D01*
X136606287Y-87350500D01*
X136816243Y-87317246D01*
X137018412Y-87251557D01*
X137207816Y-87155051D01*
X137229789Y-87139086D01*
X137379786Y-87030109D01*
X137379788Y-87030106D01*
X137379792Y-87030104D01*
X137530104Y-86879792D01*
X137530106Y-86879788D01*
X137530109Y-86879786D01*
X137655048Y-86707820D01*
X137655047Y-86707820D01*
X137655051Y-86707816D01*
X137751557Y-86518412D01*
X137817246Y-86316243D01*
X137850500Y-86106287D01*
X137850500Y-85893713D01*
X151649500Y-85893713D01*
X151649500Y-86106286D01*
X151682753Y-86316239D01*
X151748444Y-86518414D01*
X151844951Y-86707820D01*
X151969890Y-86879786D01*
X152120213Y-87030109D01*
X152292179Y-87155048D01*
X152292181Y-87155049D01*
X152292184Y-87155051D01*
X152481588Y-87251557D01*
X152683757Y-87317246D01*
X152893713Y-87350500D01*
X152893714Y-87350500D01*
X153106286Y-87350500D01*
X153106287Y-87350500D01*
X153316243Y-87317246D01*
X153518412Y-87251557D01*
X153707816Y-87155051D01*
X153729789Y-87139086D01*
X153879786Y-87030109D01*
X153879788Y-87030106D01*
X153879792Y-87030104D01*
X154030104Y-86879792D01*
X154030106Y-86879788D01*
X154030109Y-86879786D01*
X154155048Y-86707820D01*
X154155047Y-86707820D01*
X154155051Y-86707816D01*
X154251557Y-86518412D01*
X154317246Y-86316243D01*
X154350500Y-86106287D01*
X154350500Y-85893713D01*
X154317246Y-85683757D01*
X154251557Y-85481588D01*
X154155051Y-85292184D01*
X154155049Y-85292181D01*
X154155048Y-85292179D01*
X154030109Y-85120213D01*
X153879786Y-84969890D01*
X153707820Y-84844951D01*
X153518414Y-84748444D01*
X153518413Y-84748443D01*
X153518412Y-84748443D01*
X153316243Y-84682754D01*
X153316241Y-84682753D01*
X153316240Y-84682753D01*
X153154957Y-84657208D01*
X153106287Y-84649500D01*
X152893713Y-84649500D01*
X152845042Y-84657208D01*
X152683760Y-84682753D01*
X152481585Y-84748444D01*
X152292179Y-84844951D01*
X152120213Y-84969890D01*
X151969890Y-85120213D01*
X151844951Y-85292179D01*
X151748444Y-85481585D01*
X151682753Y-85683760D01*
X151649500Y-85893713D01*
X137850500Y-85893713D01*
X137817246Y-85683757D01*
X137751557Y-85481588D01*
X137655051Y-85292184D01*
X137655049Y-85292181D01*
X137655048Y-85292179D01*
X137530109Y-85120213D01*
X137379786Y-84969890D01*
X137207820Y-84844951D01*
X137018414Y-84748444D01*
X137018413Y-84748443D01*
X137018412Y-84748443D01*
X136816243Y-84682754D01*
X136816241Y-84682753D01*
X136816240Y-84682753D01*
X136654957Y-84657208D01*
X136606287Y-84649500D01*
X136393713Y-84649500D01*
X136345042Y-84657208D01*
X136183760Y-84682753D01*
X135981585Y-84748444D01*
X135792179Y-84844951D01*
X135620213Y-84969890D01*
X135469890Y-85120213D01*
X135344951Y-85292179D01*
X135248444Y-85481585D01*
X135182753Y-85683760D01*
X135149500Y-85893713D01*
X133500500Y-85893713D01*
X133500500Y-85004066D01*
X133500765Y-84995957D01*
X133502473Y-84969896D01*
X133515681Y-84768378D01*
X133516670Y-84758911D01*
X133524090Y-84707308D01*
X133525193Y-84700868D01*
X133564312Y-84504200D01*
X133566938Y-84493513D01*
X133579361Y-84451205D01*
X133580877Y-84446412D01*
X133648231Y-84247996D01*
X133652834Y-84236397D01*
X133663477Y-84213093D01*
X133664987Y-84209913D01*
X133764790Y-84007533D01*
X133772893Y-83993498D01*
X133909182Y-83789527D01*
X133919039Y-83776681D01*
X134080786Y-83592244D01*
X134092244Y-83580786D01*
X134276681Y-83419039D01*
X134289527Y-83409182D01*
X134493498Y-83272893D01*
X134507533Y-83264790D01*
X134709913Y-83164987D01*
X134713093Y-83163477D01*
X134736397Y-83152834D01*
X134747996Y-83148231D01*
X134946412Y-83080877D01*
X134951205Y-83079361D01*
X134993513Y-83066938D01*
X135004200Y-83064312D01*
X135200868Y-83025193D01*
X135207308Y-83024090D01*
X135258911Y-83016670D01*
X135268378Y-83015681D01*
X135483057Y-83001610D01*
X135495958Y-83000765D01*
X135504067Y-83000500D01*
X153995933Y-83000500D01*
X154004042Y-83000765D01*
G37*
%TD.AperFunction*%
%TD*%
M02*
